solid OpenSCAD_Model
  facet normal -1 0 0
    outer loop
      vertex -32 12 -7
      vertex -32 46 7
      vertex -32 46 -7
    endloop
  endfacet
  facet normal -1 -0 0
    outer loop
      vertex -32 46 7
      vertex -32 12 -7
      vertex -32 12 7
    endloop
  endfacet
  facet normal -0 0 1
    outer loop
      vertex -30 30 7
      vertex 30 28 7
      vertex 30 30 7
    endloop
  endfacet
  facet normal 0 0 1
    outer loop
      vertex 30 28 7
      vertex -30 30 7
      vertex -30 28 7
    endloop
  endfacet
  facet normal 0 0 1
    outer loop
      vertex 30 30 7
      vertex 32 46 7
      vertex 30 44.5 7
    endloop
  endfacet
  facet normal 0 0 1
    outer loop
      vertex 32 46 7
      vertex -30 44.5 7
      vertex 30 44.5 7
    endloop
  endfacet
  facet normal 0 0 1
    outer loop
      vertex -32 46 7
      vertex -30 30 7
      vertex -30 44.5 7
    endloop
  endfacet
  facet normal 0 0 1
    outer loop
      vertex -30 30 7
      vertex -32 46 7
      vertex -30 28 7
    endloop
  endfacet
  facet normal 0 0 1
    outer loop
      vertex -32 12 7
      vertex -30 28 7
      vertex -32 46 7
    endloop
  endfacet
  facet normal -0 0 1
    outer loop
      vertex -32 46 7
      vertex -30 44.5 7
      vertex 32 46 7
    endloop
  endfacet
  facet normal 0 0 1
    outer loop
      vertex 32 46 7
      vertex 30 30 7
      vertex 32 12 7
    endloop
  endfacet
  facet normal -0 0 1
    outer loop
      vertex 30 28 7
      vertex 32 12 7
      vertex 30 30 7
    endloop
  endfacet
  facet normal -0 0 1
    outer loop
      vertex 30 13.5 7
      vertex 32 12 7
      vertex 30 28 7
    endloop
  endfacet
  facet normal -0 0 1
    outer loop
      vertex -30 13.5 7
      vertex 32 12 7
      vertex 30 13.5 7
    endloop
  endfacet
  facet normal 0 0 1
    outer loop
      vertex -30 13.5 7
      vertex -32 12 7
      vertex 32 12 7
    endloop
  endfacet
  facet normal 0 0 1
    outer loop
      vertex -30 28 7
      vertex -32 12 7
      vertex -30 13.5 7
    endloop
  endfacet
  facet normal 1 -0 0
    outer loop
      vertex 32 12 7
      vertex 32 46 -7
      vertex 32 46 7
    endloop
  endfacet
  facet normal 1 0 0
    outer loop
      vertex 32 46 -7
      vertex 32 12 7
      vertex 32 12 -7
    endloop
  endfacet
  facet normal 0 1 -0
    outer loop
      vertex 30 30 -6.5
      vertex -30 30 7
      vertex 30 30 7
    endloop
  endfacet
  facet normal 0 1 0
    outer loop
      vertex -30 30 7
      vertex 30 30 -6.5
      vertex -30 30 -6.5
    endloop
  endfacet
  facet normal 0 0 -1
    outer loop
      vertex -32 12 -7
      vertex 32 46 -7
      vertex 32 12 -7
    endloop
  endfacet
  facet normal -0 0 -1
    outer loop
      vertex 32 46 -7
      vertex -32 12 -7
      vertex -32 46 -7
    endloop
  endfacet
  facet normal 0 -1 0
    outer loop
      vertex -32 12 -7
      vertex 32 12 7
      vertex -32 12 7
    endloop
  endfacet
  facet normal 0 -1 -0
    outer loop
      vertex 32 12 7
      vertex -32 12 -7
      vertex 32 12 -7
    endloop
  endfacet
  facet normal 1 -0 0
    outer loop
      vertex -30 13.5 7
      vertex -30 28 -6.5
      vertex -30 28 7
    endloop
  endfacet
  facet normal 1 0 0
    outer loop
      vertex -30 28 -6.5
      vertex -30 13.5 7
      vertex -30 13.5 -6.5
    endloop
  endfacet
  facet normal -1 0 0
    outer loop
      vertex 30 13.5 -6.5
      vertex 30 28 7
      vertex 30 28 -6.5
    endloop
  endfacet
  facet normal -1 -0 0
    outer loop
      vertex 30 28 7
      vertex 30 13.5 -6.5
      vertex 30 13.5 7
    endloop
  endfacet
  facet normal -0 0 1
    outer loop
      vertex -30 28 -6.5
      vertex 30 13.5 -6.5
      vertex 30 28 -6.5
    endloop
  endfacet
  facet normal 0 0 1
    outer loop
      vertex 30 13.5 -6.5
      vertex -30 28 -6.5
      vertex -30 13.5 -6.5
    endloop
  endfacet
  facet normal 0 1 -0
    outer loop
      vertex 30 13.5 -6.5
      vertex -30 13.5 7
      vertex 30 13.5 7
    endloop
  endfacet
  facet normal 0 1 0
    outer loop
      vertex -30 13.5 7
      vertex 30 13.5 -6.5
      vertex -30 13.5 -6.5
    endloop
  endfacet
  facet normal 0 1 -0
    outer loop
      vertex 32 46 -7
      vertex -32 46 7
      vertex 32 46 7
    endloop
  endfacet
  facet normal 0 1 0
    outer loop
      vertex -32 46 7
      vertex 32 46 -7
      vertex -32 46 -7
    endloop
  endfacet
  facet normal 0 -1 0
    outer loop
      vertex -30 28 -6.5
      vertex 30 28 7
      vertex -30 28 7
    endloop
  endfacet
  facet normal 0 -1 -0
    outer loop
      vertex 30 28 7
      vertex -30 28 -6.5
      vertex 30 28 -6.5
    endloop
  endfacet
  facet normal 1 -0 0
    outer loop
      vertex -30 30 7
      vertex -30 44.5 -6.5
      vertex -30 44.5 7
    endloop
  endfacet
  facet normal 1 0 0
    outer loop
      vertex -30 44.5 -6.5
      vertex -30 30 7
      vertex -30 30 -6.5
    endloop
  endfacet
  facet normal -1 0 0
    outer loop
      vertex 30 30 -6.5
      vertex 30 44.5 7
      vertex 30 44.5 -6.5
    endloop
  endfacet
  facet normal -1 -0 0
    outer loop
      vertex 30 44.5 7
      vertex 30 30 -6.5
      vertex 30 30 7
    endloop
  endfacet
  facet normal 0 -1 0
    outer loop
      vertex -30 44.5 -6.5
      vertex 30 44.5 7
      vertex -30 44.5 7
    endloop
  endfacet
  facet normal 0 -1 -0
    outer loop
      vertex 30 44.5 7
      vertex -30 44.5 -6.5
      vertex 30 44.5 -6.5
    endloop
  endfacet
  facet normal -0 0 1
    outer loop
      vertex -30 44.5 -6.5
      vertex 30 30 -6.5
      vertex 30 44.5 -6.5
    endloop
  endfacet
  facet normal 0 0 1
    outer loop
      vertex 30 30 -6.5
      vertex -30 44.5 -6.5
      vertex -30 30 -6.5
    endloop
  endfacet
endsolid OpenSCAD_Model
