%TF.GenerationSoftware,KiCad,Pcbnew,7.0.8*%
%TF.CreationDate,2024-06-05T08:03:03+02:00*%
%TF.ProjectId,ESP32-CAM_1,45535033-322d-4434-914d-5f312e6b6963,rev?*%
%TF.SameCoordinates,Original*%
%TF.FileFunction,Legend,Bot*%
%TF.FilePolarity,Positive*%
%FSLAX46Y46*%
G04 Gerber Fmt 4.6, Leading zero omitted, Abs format (unit mm)*
G04 Created by KiCad (PCBNEW 7.0.8) date 2024-06-05 08:03:03*
%MOMM*%
%LPD*%
G01*
G04 APERTURE LIST*
%ADD10C,0.120000*%
%ADD11C,0.050000*%
%ADD12C,0.010000*%
G04 APERTURE END LIST*
D10*
%TO.C,G\u002A\u002A\u002A*%
X195046269Y-119484595D02*
G75*
G03*
X195030001Y-120939998I233731J-730405D01*
G01*
X200405000Y-121040000D02*
G75*
G03*
X202105000Y-121040000I850000J0D01*
G01*
X189053744Y-120656063D02*
G75*
G03*
X189230001Y-121964999I426256J-608937D01*
G01*
X195155001Y-119940002D02*
G75*
G03*
X195155001Y-120489998I124999J-274998D01*
G01*
X200905000Y-121040000D02*
G75*
G03*
X201605000Y-121040000I350000J0D01*
G01*
X201605000Y-120340000D02*
G75*
G03*
X200905000Y-120340000I-350000J0D01*
G01*
X189479999Y-120910051D02*
G75*
G03*
X189430001Y-121414998I1J-254949D01*
G01*
X189640634Y-119922464D02*
G75*
G03*
X189580000Y-120415000I-60634J-242536D01*
G01*
X198628744Y-120631063D02*
G75*
G03*
X198805001Y-121939999I426256J-608937D01*
G01*
X189480000Y-119528606D02*
G75*
G03*
X189030001Y-120614999I0J-636394D01*
G01*
X199054999Y-120885051D02*
G75*
G03*
X199005001Y-121389998I1J-254949D01*
G01*
X202105000Y-120340000D02*
G75*
G03*
X200405000Y-120340000I-850000J0D01*
G01*
X199055000Y-119503606D02*
G75*
G03*
X198605001Y-120589999I0J-636394D01*
G01*
X199215634Y-119897464D02*
G75*
G03*
X199155000Y-120390000I-60634J-242536D01*
G01*
D11*
X197830000Y-115265000D02*
X200030000Y-116440000D01*
X200030000Y-116440000D02*
X198455000Y-117340000D01*
X205055000Y-120690000D02*
X203730000Y-121165000D01*
X202155000Y-120215000D02*
X202380000Y-120840000D01*
X202380000Y-120840000D02*
X205055000Y-120690000D01*
X196830000Y-118690000D02*
X198655000Y-119590000D01*
X195155000Y-118915000D02*
X196830000Y-118690000D01*
X193530000Y-117790000D02*
X195155000Y-118915000D01*
X205055000Y-120690000D02*
X201155000Y-116515000D01*
X205055000Y-120690000D02*
X202155000Y-120215000D01*
D10*
X195205000Y-119940000D02*
X195655000Y-119940000D01*
D11*
X196705000Y-118865000D02*
X196305000Y-119140000D01*
X197480000Y-119465000D02*
X196705000Y-118865000D01*
D10*
X196155000Y-119490000D02*
X196155000Y-121940000D01*
X199455000Y-121390000D02*
X199005000Y-121390000D01*
X199955000Y-119490000D02*
X200005000Y-121940000D01*
D11*
X201155000Y-116515000D02*
X200130000Y-116265000D01*
X188730000Y-118415000D02*
X189155000Y-118090000D01*
D10*
X199455000Y-120890000D02*
X199455000Y-121390000D01*
D11*
X188155000Y-117940000D02*
X188730000Y-118415000D01*
D10*
X194805000Y-121940000D02*
X194405000Y-121940000D01*
X196605000Y-121940000D02*
X196605000Y-121440000D01*
X195705000Y-120990000D02*
X195555000Y-120990000D01*
X196155000Y-121940000D02*
X195705000Y-121940000D01*
D11*
X197080000Y-116690000D02*
X193605000Y-115065000D01*
X192380000Y-117565000D02*
X191680000Y-118140000D01*
X197080000Y-116690000D02*
X199405000Y-117840000D01*
X193605000Y-115065000D02*
X193530000Y-117790000D01*
D10*
X189880000Y-121415000D02*
X189430000Y-121415000D01*
X194305000Y-121940000D02*
X195005000Y-120990000D01*
X195655000Y-119940000D02*
X195655000Y-120490000D01*
X189880000Y-120415000D02*
X189580000Y-120415000D01*
D11*
X190455000Y-116040000D02*
X192255000Y-116090000D01*
X201230000Y-120590000D02*
X201605000Y-120765000D01*
X200705000Y-119665000D02*
X193605000Y-115065000D01*
X192255000Y-116090000D02*
X190105000Y-117215000D01*
X202655000Y-121215000D02*
X202080000Y-120415000D01*
X191680000Y-118140000D02*
X193355000Y-118240000D01*
D10*
X189880000Y-119965000D02*
X189880000Y-120415000D01*
X199455000Y-119890000D02*
X199205000Y-119890000D01*
X195655000Y-120490000D02*
X195155000Y-120490000D01*
X197455000Y-121440000D02*
X197455000Y-120890000D01*
X196605000Y-121440000D02*
X197455000Y-121440000D01*
X200905000Y-120340000D02*
X200905000Y-120990000D01*
D11*
X196305000Y-119140000D02*
X197280000Y-119490000D01*
X201155000Y-116515000D02*
X199405000Y-117840000D01*
X201555000Y-120190000D02*
X201230000Y-120590000D01*
D10*
X199055000Y-119503605D02*
X199955000Y-119490000D01*
D11*
X202105000Y-120940000D02*
X202655000Y-121215000D01*
X189155000Y-118090000D02*
X188155000Y-117940000D01*
D10*
X189880000Y-119915000D02*
X189630000Y-119915000D01*
X199454999Y-120885050D02*
X199054999Y-120885050D01*
X189480000Y-119528605D02*
X190380000Y-119515000D01*
D11*
X199405000Y-117840000D02*
X205055000Y-120690000D01*
D10*
X191655000Y-120215000D02*
X191930000Y-120965000D01*
X191430000Y-120965000D02*
X191655000Y-120215000D01*
X197855000Y-121940000D02*
X196605000Y-121940000D01*
X195046269Y-119484594D02*
X196155000Y-119490000D01*
X189879999Y-120910050D02*
X189479999Y-120910050D01*
X189880000Y-120915000D02*
X189880000Y-121415000D01*
X190430000Y-121965000D02*
X189230000Y-121965000D01*
D11*
X203730000Y-121165000D02*
X202905000Y-120815000D01*
D10*
X200005000Y-121940000D02*
X198805000Y-121940000D01*
X201605000Y-120340000D02*
X201605000Y-121040000D01*
D11*
X194705000Y-116690000D02*
X194130000Y-118190000D01*
X193580000Y-115465000D02*
X194705000Y-116690000D01*
X193380000Y-118240000D02*
X192380000Y-117565000D01*
D10*
X190380000Y-119515000D02*
X190430000Y-121965000D01*
D11*
X197830000Y-115265000D02*
X197080000Y-116690000D01*
X200130000Y-116265000D02*
X199405000Y-117840000D01*
X190105000Y-117215000D02*
X190455000Y-116040000D01*
D10*
X195705000Y-121940000D02*
X195705000Y-120990000D01*
X194405000Y-121940000D02*
X194305000Y-121940000D01*
X195555000Y-120990000D02*
X194805000Y-121940000D01*
X192880000Y-121490000D02*
X192880000Y-121940000D01*
X191355000Y-121365000D02*
X191105000Y-121965000D01*
X192205000Y-121965000D02*
X191955000Y-121365000D01*
X197455000Y-119990000D02*
X196605000Y-119990000D01*
X199455000Y-120390000D02*
X199155000Y-120390000D01*
X191930000Y-120965000D02*
X191430000Y-120965000D01*
X196605000Y-119490000D02*
X197905000Y-119490000D01*
X191805000Y-119515000D02*
X192705000Y-121965000D01*
X197455000Y-120890000D02*
X196805000Y-120890000D01*
X196605000Y-119990000D02*
X196605000Y-119490000D01*
X192205000Y-121965000D02*
X192705000Y-121965000D01*
D11*
X199405000Y-117840000D02*
X200880000Y-119565000D01*
D10*
X193655000Y-119490000D02*
X193630000Y-121490000D01*
X194130000Y-121940000D02*
X194105000Y-119490000D01*
X196805000Y-120890000D02*
X196805000Y-120440000D01*
X191105000Y-121965000D02*
X190705000Y-121965000D01*
X191480000Y-119515000D02*
X191805000Y-119515000D01*
X196805000Y-120440000D02*
X197455000Y-120440000D01*
X199455000Y-119940000D02*
X199455000Y-120390000D01*
X197455000Y-120440000D02*
X197455000Y-119990000D01*
X190705000Y-121965000D02*
X191480000Y-119515000D01*
X197955000Y-121940000D02*
X197855000Y-121940000D01*
X197905000Y-119490000D02*
X197955000Y-121940000D01*
X200405000Y-120340000D02*
X200405000Y-121040000D01*
X202105000Y-121040000D02*
X202105000Y-120340000D01*
X194105000Y-119490000D02*
X193655000Y-119490000D01*
D12*
X210602361Y-174935226D02*
X210538542Y-174999045D01*
X210474723Y-174935226D01*
X210538542Y-174871407D01*
X210602361Y-174935226D01*
G36*
X210602361Y-174935226D02*
G01*
X210538542Y-174999045D01*
X210474723Y-174935226D01*
X210538542Y-174871407D01*
X210602361Y-174935226D01*
G37*
D10*
X192880000Y-121940000D02*
X194130000Y-121940000D01*
X193630000Y-121490000D02*
X192880000Y-121490000D01*
X191955000Y-121365000D02*
X191355000Y-121365000D01*
D12*
X204252361Y-158425226D02*
X204188542Y-158489045D01*
X204124723Y-158425226D01*
X204188542Y-158361407D01*
X204252361Y-158425226D01*
G36*
X204252361Y-158425226D02*
G01*
X204188542Y-158489045D01*
X204124723Y-158425226D01*
X204188542Y-158361407D01*
X204252361Y-158425226D01*
G37*
%TD*%
M02*
