%TF.GenerationSoftware,KiCad,Pcbnew,7.0.8*%
%TF.CreationDate,2024-06-05T08:03:03+02:00*%
%TF.ProjectId,ESP32-CAM_1,45535033-322d-4434-914d-5f312e6b6963,rev?*%
%TF.SameCoordinates,Original*%
%TF.FileFunction,Copper,L2,Bot*%
%TF.FilePolarity,Positive*%
%FSLAX46Y46*%
G04 Gerber Fmt 4.6, Leading zero omitted, Abs format (unit mm)*
G04 Created by KiCad (PCBNEW 7.0.8) date 2024-06-05 08:03:03*
%MOMM*%
%LPD*%
G01*
G04 APERTURE LIST*
%TA.AperFunction,ComponentPad*%
%ADD10O,2.000000X1.600000*%
%TD*%
%TA.AperFunction,ComponentPad*%
%ADD11R,2.000000X2.000000*%
%TD*%
%TA.AperFunction,ViaPad*%
%ADD12C,0.800000*%
%TD*%
%TA.AperFunction,Conductor*%
%ADD13C,0.250000*%
%TD*%
G04 APERTURE END LIST*
D10*
%TO.P,U9,9*%
%TO.N,Net-(U17-Pad1)*%
X206700000Y-121930000D03*
%TO.P,U9,10*%
%TO.N,Net-(U16-Pad1)*%
X206700000Y-119390000D03*
%TO.P,U9,11*%
%TO.N,Net-(U15-Pad1)*%
X206700000Y-116850000D03*
%TO.P,U9,12*%
%TO.N,Net-(U14-Pad1)*%
X206700000Y-114310000D03*
%TO.P,U9,13*%
%TO.N,Net-(U13-Pad1)*%
X206700000Y-111770000D03*
%TO.P,U9,14*%
%TO.N,Net-(U12-Pad1)*%
X206700000Y-109230000D03*
%TO.P,U9,15*%
%TO.N,Net-(U11-Pad1)*%
X206700000Y-106690000D03*
%TO.P,U9,16*%
%TO.N,Net-(U10-Pad1)*%
X206700000Y-104150000D03*
%TO.P,U9,2*%
%TO.N,Net-(U2-Pad1)*%
X183840000Y-106690000D03*
D11*
%TO.P,U9,1*%
%TO.N,Net-(U1-Pad1)*%
X183840000Y-104150000D03*
D10*
%TO.P,U9,4*%
%TO.N,Net-(U4-Pad1)*%
X183840000Y-111770000D03*
%TO.P,U9,5*%
%TO.N,Net-(U5-Pad1)*%
X183840000Y-114310000D03*
%TO.P,U9,3*%
%TO.N,Net-(U3-Pad1)*%
X183840000Y-109230000D03*
%TO.P,U9,6*%
%TO.N,Net-(U6-Pad1)*%
X183840000Y-116850000D03*
%TO.P,U9,7*%
%TO.N,Net-(U7-Pad1)*%
X183840000Y-119390000D03*
%TO.P,U9,8*%
%TO.N,Net-(U8-Pad1)*%
X183840000Y-121930000D03*
%TD*%
D11*
%TO.P,Vcc,1*%
%TO.N,Net-(U1-Pad1)*%
X184150000Y-96520000D03*
%TD*%
%TO.P,GND,1*%
%TO.N,Net-(U2-Pad1)*%
X188468000Y-96520000D03*
%TD*%
%TO.P,GPIO 12,1*%
%TO.N,Net-(U3-Pad1)*%
X184150000Y-80010000D03*
%TD*%
%TO.P,GPIO 13,1*%
%TO.N,Net-(U4-Pad1)*%
X189547500Y-80010000D03*
%TD*%
%TO.P,GPIO 15,1*%
%TO.N,Net-(U5-Pad1)*%
X200342500Y-80010000D03*
%TD*%
%TO.P,GPIO 14,1*%
%TO.N,Net-(U6-Pad1)*%
X194945000Y-80010000D03*
%TD*%
%TO.P,GPIO 2,1*%
%TO.N,Net-(U7-Pad1)*%
X194945000Y-88900000D03*
%TD*%
%TO.P,GPIO 4,1*%
%TO.N,Net-(U8-Pad1)*%
X205740000Y-88900000D03*
%TD*%
%TO.P,3\u002C3V,1*%
%TO.N,Net-(U10-Pad1)*%
X201422000Y-96520000D03*
%TD*%
%TO.P,GPIO 16,1*%
%TO.N,Net-(U11-Pad1)*%
X205740000Y-80010000D03*
%TD*%
%TO.P,GPIO 0,1*%
%TO.N,Net-(U12-Pad1)*%
X184150000Y-88900000D03*
%TD*%
%TO.P,GND,1*%
%TO.N,Net-(U13-Pad1)*%
X197104000Y-96520000D03*
%TD*%
%TO.P,3\u002C3V,1*%
%TO.N,Net-(U14-Pad1)*%
X205740000Y-96520000D03*
%TD*%
%TO.P,GPIO 3,1*%
%TO.N,Net-(U15-Pad1)*%
X200342500Y-88900000D03*
%TD*%
%TO.P,GPIO 1,1*%
%TO.N,Net-(U16-Pad1)*%
X189547500Y-88900000D03*
%TD*%
%TO.P,GND,1*%
%TO.N,Net-(U17-Pad1)*%
X192786000Y-96520000D03*
%TD*%
D12*
%TO.N,Net-(U12-Pad1)*%
X203050000Y-83550000D03*
X203850000Y-102050000D03*
%TO.N,Net-(U16-Pad1)*%
X198750000Y-99250000D03*
%TO.N,Net-(U17-Pad1)*%
X192786000Y-118764000D03*
%TD*%
D13*
%TO.N,Net-(U1-Pad1)*%
X184150000Y-103840000D02*
X183840000Y-104150000D01*
X184150000Y-96520000D02*
X184150000Y-103840000D01*
%TO.N,Net-(U3-Pad1)*%
X184150000Y-80010000D02*
X184150000Y-82150000D01*
X185475001Y-83475001D02*
X185475001Y-108524999D01*
X184150000Y-82150000D02*
X185475001Y-83475001D01*
X184770000Y-109230000D02*
X183840000Y-109230000D01*
X185475001Y-108524999D02*
X184770000Y-109230000D01*
%TO.N,Net-(U4-Pad1)*%
X189547500Y-80010000D02*
X189547500Y-80802500D01*
X189547500Y-80802500D02*
X186500000Y-83850000D01*
X185530000Y-111770000D02*
X183840000Y-111770000D01*
X186500000Y-110800000D02*
X185530000Y-111770000D01*
X186500000Y-83850000D02*
X186500000Y-110800000D01*
%TO.N,Net-(U6-Pad1)*%
X183840000Y-116850000D02*
X188300000Y-116850000D01*
X189793001Y-115356999D02*
X189450000Y-115700000D01*
X187400000Y-91900000D02*
X189793001Y-94293001D01*
X189793001Y-94293001D02*
X189793001Y-115356999D01*
X189200000Y-85650000D02*
X189200000Y-85850000D01*
X187400000Y-87650000D02*
X187400000Y-91900000D01*
X194840000Y-80010000D02*
X189200000Y-85650000D01*
X189200000Y-85850000D02*
X187400000Y-87650000D01*
X194945000Y-80010000D02*
X194840000Y-80010000D01*
X189450000Y-115700000D02*
X189650000Y-115500000D01*
X188300000Y-116850000D02*
X189450000Y-115700000D01*
%TO.N,Net-(U7-Pad1)*%
X183840000Y-119390000D02*
X190610000Y-119390000D01*
X190610000Y-119390000D02*
X195150000Y-114850000D01*
X195150000Y-89105000D02*
X194945000Y-88900000D01*
X195150000Y-114850000D02*
X195150000Y-89105000D01*
%TO.N,Net-(U10-Pad1)*%
X206700000Y-104150000D02*
X203150000Y-104150000D01*
X201422000Y-102422000D02*
X201422000Y-96520000D01*
X203150000Y-104150000D02*
X201422000Y-102422000D01*
%TO.N,Net-(U12-Pad1)*%
X203050000Y-83550000D02*
X203050000Y-93450000D01*
X203050000Y-93450000D02*
X203700000Y-94100000D01*
X203700000Y-101900000D02*
X203850000Y-102050000D01*
X203700000Y-94100000D02*
X203700000Y-101900000D01*
%TO.N,Net-(U13-Pad1)*%
X197104000Y-96520000D02*
X197104000Y-99754000D01*
X197104000Y-99754000D02*
X202050000Y-104700000D01*
X202050000Y-104700000D02*
X202050000Y-109400000D01*
X204420000Y-111770000D02*
X206700000Y-111770000D01*
X202050000Y-109400000D02*
X204420000Y-111770000D01*
%TO.N,Net-(U14-Pad1)*%
X205740000Y-96520000D02*
X206920000Y-96520000D01*
X206920000Y-96520000D02*
X208450000Y-98050000D01*
X208450000Y-98050000D02*
X208450000Y-113200000D01*
X207340000Y-114310000D02*
X206700000Y-114310000D01*
X208450000Y-113200000D02*
X207340000Y-114310000D01*
%TO.N,Net-(U16-Pad1)*%
X189547500Y-88900000D02*
X189547500Y-87402500D01*
X189547500Y-87402500D02*
X193000000Y-83950000D01*
X193000000Y-83950000D02*
X196550000Y-83950000D01*
X196550000Y-83950000D02*
X197550000Y-84950000D01*
X197550000Y-84950000D02*
X197550000Y-91500000D01*
X197550000Y-91500000D02*
X198800000Y-92750000D01*
X198800000Y-99200000D02*
X198750000Y-99250000D01*
X198800000Y-92750000D02*
X198800000Y-99200000D01*
%TO.N,Net-(U17-Pad1)*%
X192786000Y-118764000D02*
X192786000Y-120086000D01*
X194630000Y-121930000D02*
X206700000Y-121930000D01*
X192786000Y-120086000D02*
X194630000Y-121930000D01*
%TD*%
M02*
