%TF.GenerationSoftware,KiCad,Pcbnew,7.0.8*%
%TF.CreationDate,2024-06-05T08:03:03+02:00*%
%TF.ProjectId,ESP32-CAM_1,45535033-322d-4434-914d-5f312e6b6963,rev?*%
%TF.SameCoordinates,Original*%
%TF.FileFunction,Legend,Top*%
%TF.FilePolarity,Positive*%
%FSLAX46Y46*%
G04 Gerber Fmt 4.6, Leading zero omitted, Abs format (unit mm)*
G04 Created by KiCad (PCBNEW 7.0.8) date 2024-06-05 08:03:03*
%MOMM*%
%LPD*%
G01*
G04 APERTURE LIST*
%ADD10C,0.150000*%
%ADD11C,0.200000*%
%ADD12C,0.120000*%
%ADD13C,0.050000*%
G04 APERTURE END LIST*
D10*
X190952857Y-138884819D02*
X190952857Y-137884819D01*
X191524285Y-138884819D02*
X191095714Y-138313390D01*
X191524285Y-137884819D02*
X190952857Y-138456247D01*
X191952857Y-138884819D02*
X191952857Y-137884819D01*
X191952857Y-138361009D02*
X192524285Y-138361009D01*
X192524285Y-138884819D02*
X192524285Y-137884819D01*
X193333809Y-138361009D02*
X193000476Y-138361009D01*
X193000476Y-138884819D02*
X193000476Y-137884819D01*
X193000476Y-137884819D02*
X193476666Y-137884819D01*
X194048095Y-137884819D02*
X194143333Y-137884819D01*
X194143333Y-137884819D02*
X194238571Y-137932438D01*
X194238571Y-137932438D02*
X194286190Y-137980057D01*
X194286190Y-137980057D02*
X194333809Y-138075295D01*
X194333809Y-138075295D02*
X194381428Y-138265771D01*
X194381428Y-138265771D02*
X194381428Y-138503866D01*
X194381428Y-138503866D02*
X194333809Y-138694342D01*
X194333809Y-138694342D02*
X194286190Y-138789580D01*
X194286190Y-138789580D02*
X194238571Y-138837200D01*
X194238571Y-138837200D02*
X194143333Y-138884819D01*
X194143333Y-138884819D02*
X194048095Y-138884819D01*
X194048095Y-138884819D02*
X193952857Y-138837200D01*
X193952857Y-138837200D02*
X193905238Y-138789580D01*
X193905238Y-138789580D02*
X193857619Y-138694342D01*
X193857619Y-138694342D02*
X193810000Y-138503866D01*
X193810000Y-138503866D02*
X193810000Y-138265771D01*
X193810000Y-138265771D02*
X193857619Y-138075295D01*
X193857619Y-138075295D02*
X193905238Y-137980057D01*
X193905238Y-137980057D02*
X193952857Y-137932438D01*
X193952857Y-137932438D02*
X194048095Y-137884819D01*
X194714762Y-137884819D02*
X195381428Y-137884819D01*
X195381428Y-137884819D02*
X194952857Y-138884819D01*
X195762381Y-138789580D02*
X195810000Y-138837200D01*
X195810000Y-138837200D02*
X195762381Y-138884819D01*
X195762381Y-138884819D02*
X195714762Y-138837200D01*
X195714762Y-138837200D02*
X195762381Y-138789580D01*
X195762381Y-138789580D02*
X195762381Y-138884819D01*
X196190952Y-137980057D02*
X196238571Y-137932438D01*
X196238571Y-137932438D02*
X196333809Y-137884819D01*
X196333809Y-137884819D02*
X196571904Y-137884819D01*
X196571904Y-137884819D02*
X196667142Y-137932438D01*
X196667142Y-137932438D02*
X196714761Y-137980057D01*
X196714761Y-137980057D02*
X196762380Y-138075295D01*
X196762380Y-138075295D02*
X196762380Y-138170533D01*
X196762380Y-138170533D02*
X196714761Y-138313390D01*
X196714761Y-138313390D02*
X196143333Y-138884819D01*
X196143333Y-138884819D02*
X196762380Y-138884819D01*
X197714761Y-138884819D02*
X197143333Y-138884819D01*
X197429047Y-138884819D02*
X197429047Y-137884819D01*
X197429047Y-137884819D02*
X197333809Y-138027676D01*
X197333809Y-138027676D02*
X197238571Y-138122914D01*
X197238571Y-138122914D02*
X197143333Y-138170533D01*
D11*
X187056190Y-131947219D02*
X187722857Y-131947219D01*
X188008571Y-132994838D02*
X187056190Y-132994838D01*
X187056190Y-132994838D02*
X187056190Y-130994838D01*
X187056190Y-130994838D02*
X188008571Y-130994838D01*
X188770476Y-132899600D02*
X189056190Y-132994838D01*
X189056190Y-132994838D02*
X189532381Y-132994838D01*
X189532381Y-132994838D02*
X189722857Y-132899600D01*
X189722857Y-132899600D02*
X189818095Y-132804361D01*
X189818095Y-132804361D02*
X189913333Y-132613885D01*
X189913333Y-132613885D02*
X189913333Y-132423409D01*
X189913333Y-132423409D02*
X189818095Y-132232933D01*
X189818095Y-132232933D02*
X189722857Y-132137695D01*
X189722857Y-132137695D02*
X189532381Y-132042457D01*
X189532381Y-132042457D02*
X189151428Y-131947219D01*
X189151428Y-131947219D02*
X188960952Y-131851980D01*
X188960952Y-131851980D02*
X188865714Y-131756742D01*
X188865714Y-131756742D02*
X188770476Y-131566266D01*
X188770476Y-131566266D02*
X188770476Y-131375790D01*
X188770476Y-131375790D02*
X188865714Y-131185314D01*
X188865714Y-131185314D02*
X188960952Y-131090076D01*
X188960952Y-131090076D02*
X189151428Y-130994838D01*
X189151428Y-130994838D02*
X189627619Y-130994838D01*
X189627619Y-130994838D02*
X189913333Y-131090076D01*
X190770476Y-132994838D02*
X190770476Y-130994838D01*
X190770476Y-130994838D02*
X191532381Y-130994838D01*
X191532381Y-130994838D02*
X191722857Y-131090076D01*
X191722857Y-131090076D02*
X191818095Y-131185314D01*
X191818095Y-131185314D02*
X191913333Y-131375790D01*
X191913333Y-131375790D02*
X191913333Y-131661504D01*
X191913333Y-131661504D02*
X191818095Y-131851980D01*
X191818095Y-131851980D02*
X191722857Y-131947219D01*
X191722857Y-131947219D02*
X191532381Y-132042457D01*
X191532381Y-132042457D02*
X190770476Y-132042457D01*
X192580000Y-130994838D02*
X193818095Y-130994838D01*
X193818095Y-130994838D02*
X193151428Y-131756742D01*
X193151428Y-131756742D02*
X193437143Y-131756742D01*
X193437143Y-131756742D02*
X193627619Y-131851980D01*
X193627619Y-131851980D02*
X193722857Y-131947219D01*
X193722857Y-131947219D02*
X193818095Y-132137695D01*
X193818095Y-132137695D02*
X193818095Y-132613885D01*
X193818095Y-132613885D02*
X193722857Y-132804361D01*
X193722857Y-132804361D02*
X193627619Y-132899600D01*
X193627619Y-132899600D02*
X193437143Y-132994838D01*
X193437143Y-132994838D02*
X192865714Y-132994838D01*
X192865714Y-132994838D02*
X192675238Y-132899600D01*
X192675238Y-132899600D02*
X192580000Y-132804361D01*
X194580000Y-131185314D02*
X194675238Y-131090076D01*
X194675238Y-131090076D02*
X194865714Y-130994838D01*
X194865714Y-130994838D02*
X195341905Y-130994838D01*
X195341905Y-130994838D02*
X195532381Y-131090076D01*
X195532381Y-131090076D02*
X195627619Y-131185314D01*
X195627619Y-131185314D02*
X195722857Y-131375790D01*
X195722857Y-131375790D02*
X195722857Y-131566266D01*
X195722857Y-131566266D02*
X195627619Y-131851980D01*
X195627619Y-131851980D02*
X194484762Y-132994838D01*
X194484762Y-132994838D02*
X195722857Y-132994838D01*
X196580000Y-132232933D02*
X198103810Y-132232933D01*
X200199047Y-132804361D02*
X200103809Y-132899600D01*
X200103809Y-132899600D02*
X199818095Y-132994838D01*
X199818095Y-132994838D02*
X199627619Y-132994838D01*
X199627619Y-132994838D02*
X199341904Y-132899600D01*
X199341904Y-132899600D02*
X199151428Y-132709123D01*
X199151428Y-132709123D02*
X199056190Y-132518647D01*
X199056190Y-132518647D02*
X198960952Y-132137695D01*
X198960952Y-132137695D02*
X198960952Y-131851980D01*
X198960952Y-131851980D02*
X199056190Y-131471028D01*
X199056190Y-131471028D02*
X199151428Y-131280552D01*
X199151428Y-131280552D02*
X199341904Y-131090076D01*
X199341904Y-131090076D02*
X199627619Y-130994838D01*
X199627619Y-130994838D02*
X199818095Y-130994838D01*
X199818095Y-130994838D02*
X200103809Y-131090076D01*
X200103809Y-131090076D02*
X200199047Y-131185314D01*
X200960952Y-132423409D02*
X201913333Y-132423409D01*
X200770476Y-132994838D02*
X201437142Y-130994838D01*
X201437142Y-130994838D02*
X202103809Y-132994838D01*
X202770476Y-132994838D02*
X202770476Y-130994838D01*
X202770476Y-130994838D02*
X203437143Y-132423409D01*
X203437143Y-132423409D02*
X204103809Y-130994838D01*
X204103809Y-130994838D02*
X204103809Y-132994838D01*
D10*
X194508095Y-101054819D02*
X194508095Y-101864342D01*
X194508095Y-101864342D02*
X194555714Y-101959580D01*
X194555714Y-101959580D02*
X194603333Y-102007200D01*
X194603333Y-102007200D02*
X194698571Y-102054819D01*
X194698571Y-102054819D02*
X194889047Y-102054819D01*
X194889047Y-102054819D02*
X194984285Y-102007200D01*
X194984285Y-102007200D02*
X195031904Y-101959580D01*
X195031904Y-101959580D02*
X195079523Y-101864342D01*
X195079523Y-101864342D02*
X195079523Y-101054819D01*
X195603333Y-102054819D02*
X195793809Y-102054819D01*
X195793809Y-102054819D02*
X195889047Y-102007200D01*
X195889047Y-102007200D02*
X195936666Y-101959580D01*
X195936666Y-101959580D02*
X196031904Y-101816723D01*
X196031904Y-101816723D02*
X196079523Y-101626247D01*
X196079523Y-101626247D02*
X196079523Y-101245295D01*
X196079523Y-101245295D02*
X196031904Y-101150057D01*
X196031904Y-101150057D02*
X195984285Y-101102438D01*
X195984285Y-101102438D02*
X195889047Y-101054819D01*
X195889047Y-101054819D02*
X195698571Y-101054819D01*
X195698571Y-101054819D02*
X195603333Y-101102438D01*
X195603333Y-101102438D02*
X195555714Y-101150057D01*
X195555714Y-101150057D02*
X195508095Y-101245295D01*
X195508095Y-101245295D02*
X195508095Y-101483390D01*
X195508095Y-101483390D02*
X195555714Y-101578628D01*
X195555714Y-101578628D02*
X195603333Y-101626247D01*
X195603333Y-101626247D02*
X195698571Y-101673866D01*
X195698571Y-101673866D02*
X195889047Y-101673866D01*
X195889047Y-101673866D02*
X195984285Y-101626247D01*
X195984285Y-101626247D02*
X196031904Y-101578628D01*
X196031904Y-101578628D02*
X196079523Y-101483390D01*
X183604819Y-95056077D02*
X184604819Y-94722744D01*
X184604819Y-94722744D02*
X183604819Y-94389411D01*
X184557200Y-93627506D02*
X184604819Y-93722744D01*
X184604819Y-93722744D02*
X184604819Y-93913220D01*
X184604819Y-93913220D02*
X184557200Y-94008458D01*
X184557200Y-94008458D02*
X184509580Y-94056077D01*
X184509580Y-94056077D02*
X184414342Y-94103696D01*
X184414342Y-94103696D02*
X184128628Y-94103696D01*
X184128628Y-94103696D02*
X184033390Y-94056077D01*
X184033390Y-94056077D02*
X183985771Y-94008458D01*
X183985771Y-94008458D02*
X183938152Y-93913220D01*
X183938152Y-93913220D02*
X183938152Y-93722744D01*
X183938152Y-93722744D02*
X183985771Y-93627506D01*
X184557200Y-92770363D02*
X184604819Y-92865601D01*
X184604819Y-92865601D02*
X184604819Y-93056077D01*
X184604819Y-93056077D02*
X184557200Y-93151315D01*
X184557200Y-93151315D02*
X184509580Y-93198934D01*
X184509580Y-93198934D02*
X184414342Y-93246553D01*
X184414342Y-93246553D02*
X184128628Y-93246553D01*
X184128628Y-93246553D02*
X184033390Y-93198934D01*
X184033390Y-93198934D02*
X183985771Y-93151315D01*
X183985771Y-93151315D02*
X183938152Y-93056077D01*
X183938152Y-93056077D02*
X183938152Y-92865601D01*
X183938152Y-92865601D02*
X183985771Y-92770363D01*
X187970438Y-94389411D02*
X187922819Y-94484649D01*
X187922819Y-94484649D02*
X187922819Y-94627506D01*
X187922819Y-94627506D02*
X187970438Y-94770363D01*
X187970438Y-94770363D02*
X188065676Y-94865601D01*
X188065676Y-94865601D02*
X188160914Y-94913220D01*
X188160914Y-94913220D02*
X188351390Y-94960839D01*
X188351390Y-94960839D02*
X188494247Y-94960839D01*
X188494247Y-94960839D02*
X188684723Y-94913220D01*
X188684723Y-94913220D02*
X188779961Y-94865601D01*
X188779961Y-94865601D02*
X188875200Y-94770363D01*
X188875200Y-94770363D02*
X188922819Y-94627506D01*
X188922819Y-94627506D02*
X188922819Y-94532268D01*
X188922819Y-94532268D02*
X188875200Y-94389411D01*
X188875200Y-94389411D02*
X188827580Y-94341792D01*
X188827580Y-94341792D02*
X188494247Y-94341792D01*
X188494247Y-94341792D02*
X188494247Y-94532268D01*
X188922819Y-93913220D02*
X187922819Y-93913220D01*
X187922819Y-93913220D02*
X188922819Y-93341792D01*
X188922819Y-93341792D02*
X187922819Y-93341792D01*
X188922819Y-92865601D02*
X187922819Y-92865601D01*
X187922819Y-92865601D02*
X187922819Y-92627506D01*
X187922819Y-92627506D02*
X187970438Y-92484649D01*
X187970438Y-92484649D02*
X188065676Y-92389411D01*
X188065676Y-92389411D02*
X188160914Y-92341792D01*
X188160914Y-92341792D02*
X188351390Y-92294173D01*
X188351390Y-92294173D02*
X188494247Y-92294173D01*
X188494247Y-92294173D02*
X188684723Y-92341792D01*
X188684723Y-92341792D02*
X188779961Y-92389411D01*
X188779961Y-92389411D02*
X188875200Y-92484649D01*
X188875200Y-92484649D02*
X188922819Y-92627506D01*
X188922819Y-92627506D02*
X188922819Y-92865601D01*
X183652438Y-77879411D02*
X183604819Y-77974649D01*
X183604819Y-77974649D02*
X183604819Y-78117506D01*
X183604819Y-78117506D02*
X183652438Y-78260363D01*
X183652438Y-78260363D02*
X183747676Y-78355601D01*
X183747676Y-78355601D02*
X183842914Y-78403220D01*
X183842914Y-78403220D02*
X184033390Y-78450839D01*
X184033390Y-78450839D02*
X184176247Y-78450839D01*
X184176247Y-78450839D02*
X184366723Y-78403220D01*
X184366723Y-78403220D02*
X184461961Y-78355601D01*
X184461961Y-78355601D02*
X184557200Y-78260363D01*
X184557200Y-78260363D02*
X184604819Y-78117506D01*
X184604819Y-78117506D02*
X184604819Y-78022268D01*
X184604819Y-78022268D02*
X184557200Y-77879411D01*
X184557200Y-77879411D02*
X184509580Y-77831792D01*
X184509580Y-77831792D02*
X184176247Y-77831792D01*
X184176247Y-77831792D02*
X184176247Y-78022268D01*
X184604819Y-77403220D02*
X183604819Y-77403220D01*
X183604819Y-77403220D02*
X183604819Y-77022268D01*
X183604819Y-77022268D02*
X183652438Y-76927030D01*
X183652438Y-76927030D02*
X183700057Y-76879411D01*
X183700057Y-76879411D02*
X183795295Y-76831792D01*
X183795295Y-76831792D02*
X183938152Y-76831792D01*
X183938152Y-76831792D02*
X184033390Y-76879411D01*
X184033390Y-76879411D02*
X184081009Y-76927030D01*
X184081009Y-76927030D02*
X184128628Y-77022268D01*
X184128628Y-77022268D02*
X184128628Y-77403220D01*
X184604819Y-76403220D02*
X183604819Y-76403220D01*
X183604819Y-75736554D02*
X183604819Y-75546078D01*
X183604819Y-75546078D02*
X183652438Y-75450840D01*
X183652438Y-75450840D02*
X183747676Y-75355602D01*
X183747676Y-75355602D02*
X183938152Y-75307983D01*
X183938152Y-75307983D02*
X184271485Y-75307983D01*
X184271485Y-75307983D02*
X184461961Y-75355602D01*
X184461961Y-75355602D02*
X184557200Y-75450840D01*
X184557200Y-75450840D02*
X184604819Y-75546078D01*
X184604819Y-75546078D02*
X184604819Y-75736554D01*
X184604819Y-75736554D02*
X184557200Y-75831792D01*
X184557200Y-75831792D02*
X184461961Y-75927030D01*
X184461961Y-75927030D02*
X184271485Y-75974649D01*
X184271485Y-75974649D02*
X183938152Y-75974649D01*
X183938152Y-75974649D02*
X183747676Y-75927030D01*
X183747676Y-75927030D02*
X183652438Y-75831792D01*
X183652438Y-75831792D02*
X183604819Y-75736554D01*
X184604819Y-73593697D02*
X184604819Y-74165125D01*
X184604819Y-73879411D02*
X183604819Y-73879411D01*
X183604819Y-73879411D02*
X183747676Y-73974649D01*
X183747676Y-73974649D02*
X183842914Y-74069887D01*
X183842914Y-74069887D02*
X183890533Y-74165125D01*
X183700057Y-73212744D02*
X183652438Y-73165125D01*
X183652438Y-73165125D02*
X183604819Y-73069887D01*
X183604819Y-73069887D02*
X183604819Y-72831792D01*
X183604819Y-72831792D02*
X183652438Y-72736554D01*
X183652438Y-72736554D02*
X183700057Y-72688935D01*
X183700057Y-72688935D02*
X183795295Y-72641316D01*
X183795295Y-72641316D02*
X183890533Y-72641316D01*
X183890533Y-72641316D02*
X184033390Y-72688935D01*
X184033390Y-72688935D02*
X184604819Y-73260363D01*
X184604819Y-73260363D02*
X184604819Y-72641316D01*
X189049938Y-77879411D02*
X189002319Y-77974649D01*
X189002319Y-77974649D02*
X189002319Y-78117506D01*
X189002319Y-78117506D02*
X189049938Y-78260363D01*
X189049938Y-78260363D02*
X189145176Y-78355601D01*
X189145176Y-78355601D02*
X189240414Y-78403220D01*
X189240414Y-78403220D02*
X189430890Y-78450839D01*
X189430890Y-78450839D02*
X189573747Y-78450839D01*
X189573747Y-78450839D02*
X189764223Y-78403220D01*
X189764223Y-78403220D02*
X189859461Y-78355601D01*
X189859461Y-78355601D02*
X189954700Y-78260363D01*
X189954700Y-78260363D02*
X190002319Y-78117506D01*
X190002319Y-78117506D02*
X190002319Y-78022268D01*
X190002319Y-78022268D02*
X189954700Y-77879411D01*
X189954700Y-77879411D02*
X189907080Y-77831792D01*
X189907080Y-77831792D02*
X189573747Y-77831792D01*
X189573747Y-77831792D02*
X189573747Y-78022268D01*
X190002319Y-77403220D02*
X189002319Y-77403220D01*
X189002319Y-77403220D02*
X189002319Y-77022268D01*
X189002319Y-77022268D02*
X189049938Y-76927030D01*
X189049938Y-76927030D02*
X189097557Y-76879411D01*
X189097557Y-76879411D02*
X189192795Y-76831792D01*
X189192795Y-76831792D02*
X189335652Y-76831792D01*
X189335652Y-76831792D02*
X189430890Y-76879411D01*
X189430890Y-76879411D02*
X189478509Y-76927030D01*
X189478509Y-76927030D02*
X189526128Y-77022268D01*
X189526128Y-77022268D02*
X189526128Y-77403220D01*
X190002319Y-76403220D02*
X189002319Y-76403220D01*
X189002319Y-75736554D02*
X189002319Y-75546078D01*
X189002319Y-75546078D02*
X189049938Y-75450840D01*
X189049938Y-75450840D02*
X189145176Y-75355602D01*
X189145176Y-75355602D02*
X189335652Y-75307983D01*
X189335652Y-75307983D02*
X189668985Y-75307983D01*
X189668985Y-75307983D02*
X189859461Y-75355602D01*
X189859461Y-75355602D02*
X189954700Y-75450840D01*
X189954700Y-75450840D02*
X190002319Y-75546078D01*
X190002319Y-75546078D02*
X190002319Y-75736554D01*
X190002319Y-75736554D02*
X189954700Y-75831792D01*
X189954700Y-75831792D02*
X189859461Y-75927030D01*
X189859461Y-75927030D02*
X189668985Y-75974649D01*
X189668985Y-75974649D02*
X189335652Y-75974649D01*
X189335652Y-75974649D02*
X189145176Y-75927030D01*
X189145176Y-75927030D02*
X189049938Y-75831792D01*
X189049938Y-75831792D02*
X189002319Y-75736554D01*
X190002319Y-73593697D02*
X190002319Y-74165125D01*
X190002319Y-73879411D02*
X189002319Y-73879411D01*
X189002319Y-73879411D02*
X189145176Y-73974649D01*
X189145176Y-73974649D02*
X189240414Y-74069887D01*
X189240414Y-74069887D02*
X189288033Y-74165125D01*
X189002319Y-73260363D02*
X189002319Y-72641316D01*
X189002319Y-72641316D02*
X189383271Y-72974649D01*
X189383271Y-72974649D02*
X189383271Y-72831792D01*
X189383271Y-72831792D02*
X189430890Y-72736554D01*
X189430890Y-72736554D02*
X189478509Y-72688935D01*
X189478509Y-72688935D02*
X189573747Y-72641316D01*
X189573747Y-72641316D02*
X189811842Y-72641316D01*
X189811842Y-72641316D02*
X189907080Y-72688935D01*
X189907080Y-72688935D02*
X189954700Y-72736554D01*
X189954700Y-72736554D02*
X190002319Y-72831792D01*
X190002319Y-72831792D02*
X190002319Y-73117506D01*
X190002319Y-73117506D02*
X189954700Y-73212744D01*
X189954700Y-73212744D02*
X189907080Y-73260363D01*
X199844938Y-77879411D02*
X199797319Y-77974649D01*
X199797319Y-77974649D02*
X199797319Y-78117506D01*
X199797319Y-78117506D02*
X199844938Y-78260363D01*
X199844938Y-78260363D02*
X199940176Y-78355601D01*
X199940176Y-78355601D02*
X200035414Y-78403220D01*
X200035414Y-78403220D02*
X200225890Y-78450839D01*
X200225890Y-78450839D02*
X200368747Y-78450839D01*
X200368747Y-78450839D02*
X200559223Y-78403220D01*
X200559223Y-78403220D02*
X200654461Y-78355601D01*
X200654461Y-78355601D02*
X200749700Y-78260363D01*
X200749700Y-78260363D02*
X200797319Y-78117506D01*
X200797319Y-78117506D02*
X200797319Y-78022268D01*
X200797319Y-78022268D02*
X200749700Y-77879411D01*
X200749700Y-77879411D02*
X200702080Y-77831792D01*
X200702080Y-77831792D02*
X200368747Y-77831792D01*
X200368747Y-77831792D02*
X200368747Y-78022268D01*
X200797319Y-77403220D02*
X199797319Y-77403220D01*
X199797319Y-77403220D02*
X199797319Y-77022268D01*
X199797319Y-77022268D02*
X199844938Y-76927030D01*
X199844938Y-76927030D02*
X199892557Y-76879411D01*
X199892557Y-76879411D02*
X199987795Y-76831792D01*
X199987795Y-76831792D02*
X200130652Y-76831792D01*
X200130652Y-76831792D02*
X200225890Y-76879411D01*
X200225890Y-76879411D02*
X200273509Y-76927030D01*
X200273509Y-76927030D02*
X200321128Y-77022268D01*
X200321128Y-77022268D02*
X200321128Y-77403220D01*
X200797319Y-76403220D02*
X199797319Y-76403220D01*
X199797319Y-75736554D02*
X199797319Y-75546078D01*
X199797319Y-75546078D02*
X199844938Y-75450840D01*
X199844938Y-75450840D02*
X199940176Y-75355602D01*
X199940176Y-75355602D02*
X200130652Y-75307983D01*
X200130652Y-75307983D02*
X200463985Y-75307983D01*
X200463985Y-75307983D02*
X200654461Y-75355602D01*
X200654461Y-75355602D02*
X200749700Y-75450840D01*
X200749700Y-75450840D02*
X200797319Y-75546078D01*
X200797319Y-75546078D02*
X200797319Y-75736554D01*
X200797319Y-75736554D02*
X200749700Y-75831792D01*
X200749700Y-75831792D02*
X200654461Y-75927030D01*
X200654461Y-75927030D02*
X200463985Y-75974649D01*
X200463985Y-75974649D02*
X200130652Y-75974649D01*
X200130652Y-75974649D02*
X199940176Y-75927030D01*
X199940176Y-75927030D02*
X199844938Y-75831792D01*
X199844938Y-75831792D02*
X199797319Y-75736554D01*
X200797319Y-73593697D02*
X200797319Y-74165125D01*
X200797319Y-73879411D02*
X199797319Y-73879411D01*
X199797319Y-73879411D02*
X199940176Y-73974649D01*
X199940176Y-73974649D02*
X200035414Y-74069887D01*
X200035414Y-74069887D02*
X200083033Y-74165125D01*
X199797319Y-72688935D02*
X199797319Y-73165125D01*
X199797319Y-73165125D02*
X200273509Y-73212744D01*
X200273509Y-73212744D02*
X200225890Y-73165125D01*
X200225890Y-73165125D02*
X200178271Y-73069887D01*
X200178271Y-73069887D02*
X200178271Y-72831792D01*
X200178271Y-72831792D02*
X200225890Y-72736554D01*
X200225890Y-72736554D02*
X200273509Y-72688935D01*
X200273509Y-72688935D02*
X200368747Y-72641316D01*
X200368747Y-72641316D02*
X200606842Y-72641316D01*
X200606842Y-72641316D02*
X200702080Y-72688935D01*
X200702080Y-72688935D02*
X200749700Y-72736554D01*
X200749700Y-72736554D02*
X200797319Y-72831792D01*
X200797319Y-72831792D02*
X200797319Y-73069887D01*
X200797319Y-73069887D02*
X200749700Y-73165125D01*
X200749700Y-73165125D02*
X200702080Y-73212744D01*
X194447438Y-77879411D02*
X194399819Y-77974649D01*
X194399819Y-77974649D02*
X194399819Y-78117506D01*
X194399819Y-78117506D02*
X194447438Y-78260363D01*
X194447438Y-78260363D02*
X194542676Y-78355601D01*
X194542676Y-78355601D02*
X194637914Y-78403220D01*
X194637914Y-78403220D02*
X194828390Y-78450839D01*
X194828390Y-78450839D02*
X194971247Y-78450839D01*
X194971247Y-78450839D02*
X195161723Y-78403220D01*
X195161723Y-78403220D02*
X195256961Y-78355601D01*
X195256961Y-78355601D02*
X195352200Y-78260363D01*
X195352200Y-78260363D02*
X195399819Y-78117506D01*
X195399819Y-78117506D02*
X195399819Y-78022268D01*
X195399819Y-78022268D02*
X195352200Y-77879411D01*
X195352200Y-77879411D02*
X195304580Y-77831792D01*
X195304580Y-77831792D02*
X194971247Y-77831792D01*
X194971247Y-77831792D02*
X194971247Y-78022268D01*
X195399819Y-77403220D02*
X194399819Y-77403220D01*
X194399819Y-77403220D02*
X194399819Y-77022268D01*
X194399819Y-77022268D02*
X194447438Y-76927030D01*
X194447438Y-76927030D02*
X194495057Y-76879411D01*
X194495057Y-76879411D02*
X194590295Y-76831792D01*
X194590295Y-76831792D02*
X194733152Y-76831792D01*
X194733152Y-76831792D02*
X194828390Y-76879411D01*
X194828390Y-76879411D02*
X194876009Y-76927030D01*
X194876009Y-76927030D02*
X194923628Y-77022268D01*
X194923628Y-77022268D02*
X194923628Y-77403220D01*
X195399819Y-76403220D02*
X194399819Y-76403220D01*
X194399819Y-75736554D02*
X194399819Y-75546078D01*
X194399819Y-75546078D02*
X194447438Y-75450840D01*
X194447438Y-75450840D02*
X194542676Y-75355602D01*
X194542676Y-75355602D02*
X194733152Y-75307983D01*
X194733152Y-75307983D02*
X195066485Y-75307983D01*
X195066485Y-75307983D02*
X195256961Y-75355602D01*
X195256961Y-75355602D02*
X195352200Y-75450840D01*
X195352200Y-75450840D02*
X195399819Y-75546078D01*
X195399819Y-75546078D02*
X195399819Y-75736554D01*
X195399819Y-75736554D02*
X195352200Y-75831792D01*
X195352200Y-75831792D02*
X195256961Y-75927030D01*
X195256961Y-75927030D02*
X195066485Y-75974649D01*
X195066485Y-75974649D02*
X194733152Y-75974649D01*
X194733152Y-75974649D02*
X194542676Y-75927030D01*
X194542676Y-75927030D02*
X194447438Y-75831792D01*
X194447438Y-75831792D02*
X194399819Y-75736554D01*
X195399819Y-73593697D02*
X195399819Y-74165125D01*
X195399819Y-73879411D02*
X194399819Y-73879411D01*
X194399819Y-73879411D02*
X194542676Y-73974649D01*
X194542676Y-73974649D02*
X194637914Y-74069887D01*
X194637914Y-74069887D02*
X194685533Y-74165125D01*
X194733152Y-72736554D02*
X195399819Y-72736554D01*
X194352200Y-72974649D02*
X195066485Y-73212744D01*
X195066485Y-73212744D02*
X195066485Y-72593697D01*
X194447438Y-86769411D02*
X194399819Y-86864649D01*
X194399819Y-86864649D02*
X194399819Y-87007506D01*
X194399819Y-87007506D02*
X194447438Y-87150363D01*
X194447438Y-87150363D02*
X194542676Y-87245601D01*
X194542676Y-87245601D02*
X194637914Y-87293220D01*
X194637914Y-87293220D02*
X194828390Y-87340839D01*
X194828390Y-87340839D02*
X194971247Y-87340839D01*
X194971247Y-87340839D02*
X195161723Y-87293220D01*
X195161723Y-87293220D02*
X195256961Y-87245601D01*
X195256961Y-87245601D02*
X195352200Y-87150363D01*
X195352200Y-87150363D02*
X195399819Y-87007506D01*
X195399819Y-87007506D02*
X195399819Y-86912268D01*
X195399819Y-86912268D02*
X195352200Y-86769411D01*
X195352200Y-86769411D02*
X195304580Y-86721792D01*
X195304580Y-86721792D02*
X194971247Y-86721792D01*
X194971247Y-86721792D02*
X194971247Y-86912268D01*
X195399819Y-86293220D02*
X194399819Y-86293220D01*
X194399819Y-86293220D02*
X194399819Y-85912268D01*
X194399819Y-85912268D02*
X194447438Y-85817030D01*
X194447438Y-85817030D02*
X194495057Y-85769411D01*
X194495057Y-85769411D02*
X194590295Y-85721792D01*
X194590295Y-85721792D02*
X194733152Y-85721792D01*
X194733152Y-85721792D02*
X194828390Y-85769411D01*
X194828390Y-85769411D02*
X194876009Y-85817030D01*
X194876009Y-85817030D02*
X194923628Y-85912268D01*
X194923628Y-85912268D02*
X194923628Y-86293220D01*
X195399819Y-85293220D02*
X194399819Y-85293220D01*
X194399819Y-84626554D02*
X194399819Y-84436078D01*
X194399819Y-84436078D02*
X194447438Y-84340840D01*
X194447438Y-84340840D02*
X194542676Y-84245602D01*
X194542676Y-84245602D02*
X194733152Y-84197983D01*
X194733152Y-84197983D02*
X195066485Y-84197983D01*
X195066485Y-84197983D02*
X195256961Y-84245602D01*
X195256961Y-84245602D02*
X195352200Y-84340840D01*
X195352200Y-84340840D02*
X195399819Y-84436078D01*
X195399819Y-84436078D02*
X195399819Y-84626554D01*
X195399819Y-84626554D02*
X195352200Y-84721792D01*
X195352200Y-84721792D02*
X195256961Y-84817030D01*
X195256961Y-84817030D02*
X195066485Y-84864649D01*
X195066485Y-84864649D02*
X194733152Y-84864649D01*
X194733152Y-84864649D02*
X194542676Y-84817030D01*
X194542676Y-84817030D02*
X194447438Y-84721792D01*
X194447438Y-84721792D02*
X194399819Y-84626554D01*
X194495057Y-83055125D02*
X194447438Y-83007506D01*
X194447438Y-83007506D02*
X194399819Y-82912268D01*
X194399819Y-82912268D02*
X194399819Y-82674173D01*
X194399819Y-82674173D02*
X194447438Y-82578935D01*
X194447438Y-82578935D02*
X194495057Y-82531316D01*
X194495057Y-82531316D02*
X194590295Y-82483697D01*
X194590295Y-82483697D02*
X194685533Y-82483697D01*
X194685533Y-82483697D02*
X194828390Y-82531316D01*
X194828390Y-82531316D02*
X195399819Y-83102744D01*
X195399819Y-83102744D02*
X195399819Y-82483697D01*
X205242438Y-86769411D02*
X205194819Y-86864649D01*
X205194819Y-86864649D02*
X205194819Y-87007506D01*
X205194819Y-87007506D02*
X205242438Y-87150363D01*
X205242438Y-87150363D02*
X205337676Y-87245601D01*
X205337676Y-87245601D02*
X205432914Y-87293220D01*
X205432914Y-87293220D02*
X205623390Y-87340839D01*
X205623390Y-87340839D02*
X205766247Y-87340839D01*
X205766247Y-87340839D02*
X205956723Y-87293220D01*
X205956723Y-87293220D02*
X206051961Y-87245601D01*
X206051961Y-87245601D02*
X206147200Y-87150363D01*
X206147200Y-87150363D02*
X206194819Y-87007506D01*
X206194819Y-87007506D02*
X206194819Y-86912268D01*
X206194819Y-86912268D02*
X206147200Y-86769411D01*
X206147200Y-86769411D02*
X206099580Y-86721792D01*
X206099580Y-86721792D02*
X205766247Y-86721792D01*
X205766247Y-86721792D02*
X205766247Y-86912268D01*
X206194819Y-86293220D02*
X205194819Y-86293220D01*
X205194819Y-86293220D02*
X205194819Y-85912268D01*
X205194819Y-85912268D02*
X205242438Y-85817030D01*
X205242438Y-85817030D02*
X205290057Y-85769411D01*
X205290057Y-85769411D02*
X205385295Y-85721792D01*
X205385295Y-85721792D02*
X205528152Y-85721792D01*
X205528152Y-85721792D02*
X205623390Y-85769411D01*
X205623390Y-85769411D02*
X205671009Y-85817030D01*
X205671009Y-85817030D02*
X205718628Y-85912268D01*
X205718628Y-85912268D02*
X205718628Y-86293220D01*
X206194819Y-85293220D02*
X205194819Y-85293220D01*
X205194819Y-84626554D02*
X205194819Y-84436078D01*
X205194819Y-84436078D02*
X205242438Y-84340840D01*
X205242438Y-84340840D02*
X205337676Y-84245602D01*
X205337676Y-84245602D02*
X205528152Y-84197983D01*
X205528152Y-84197983D02*
X205861485Y-84197983D01*
X205861485Y-84197983D02*
X206051961Y-84245602D01*
X206051961Y-84245602D02*
X206147200Y-84340840D01*
X206147200Y-84340840D02*
X206194819Y-84436078D01*
X206194819Y-84436078D02*
X206194819Y-84626554D01*
X206194819Y-84626554D02*
X206147200Y-84721792D01*
X206147200Y-84721792D02*
X206051961Y-84817030D01*
X206051961Y-84817030D02*
X205861485Y-84864649D01*
X205861485Y-84864649D02*
X205528152Y-84864649D01*
X205528152Y-84864649D02*
X205337676Y-84817030D01*
X205337676Y-84817030D02*
X205242438Y-84721792D01*
X205242438Y-84721792D02*
X205194819Y-84626554D01*
X205528152Y-82578935D02*
X206194819Y-82578935D01*
X205147200Y-82817030D02*
X205861485Y-83055125D01*
X205861485Y-83055125D02*
X205861485Y-82436078D01*
X200876819Y-95008458D02*
X200876819Y-94389411D01*
X200876819Y-94389411D02*
X201257771Y-94722744D01*
X201257771Y-94722744D02*
X201257771Y-94579887D01*
X201257771Y-94579887D02*
X201305390Y-94484649D01*
X201305390Y-94484649D02*
X201353009Y-94437030D01*
X201353009Y-94437030D02*
X201448247Y-94389411D01*
X201448247Y-94389411D02*
X201686342Y-94389411D01*
X201686342Y-94389411D02*
X201781580Y-94437030D01*
X201781580Y-94437030D02*
X201829200Y-94484649D01*
X201829200Y-94484649D02*
X201876819Y-94579887D01*
X201876819Y-94579887D02*
X201876819Y-94865601D01*
X201876819Y-94865601D02*
X201829200Y-94960839D01*
X201829200Y-94960839D02*
X201781580Y-95008458D01*
X201829200Y-93913220D02*
X201876819Y-93913220D01*
X201876819Y-93913220D02*
X201972057Y-93960839D01*
X201972057Y-93960839D02*
X202019676Y-94008458D01*
X200876819Y-93579887D02*
X200876819Y-92960840D01*
X200876819Y-92960840D02*
X201257771Y-93294173D01*
X201257771Y-93294173D02*
X201257771Y-93151316D01*
X201257771Y-93151316D02*
X201305390Y-93056078D01*
X201305390Y-93056078D02*
X201353009Y-93008459D01*
X201353009Y-93008459D02*
X201448247Y-92960840D01*
X201448247Y-92960840D02*
X201686342Y-92960840D01*
X201686342Y-92960840D02*
X201781580Y-93008459D01*
X201781580Y-93008459D02*
X201829200Y-93056078D01*
X201829200Y-93056078D02*
X201876819Y-93151316D01*
X201876819Y-93151316D02*
X201876819Y-93437030D01*
X201876819Y-93437030D02*
X201829200Y-93532268D01*
X201829200Y-93532268D02*
X201781580Y-93579887D01*
X200876819Y-92675125D02*
X201876819Y-92341792D01*
X201876819Y-92341792D02*
X200876819Y-92008459D01*
X205242438Y-77917255D02*
X205194819Y-78012493D01*
X205194819Y-78012493D02*
X205194819Y-78155350D01*
X205194819Y-78155350D02*
X205242438Y-78298207D01*
X205242438Y-78298207D02*
X205337676Y-78393445D01*
X205337676Y-78393445D02*
X205432914Y-78441064D01*
X205432914Y-78441064D02*
X205623390Y-78488683D01*
X205623390Y-78488683D02*
X205766247Y-78488683D01*
X205766247Y-78488683D02*
X205956723Y-78441064D01*
X205956723Y-78441064D02*
X206051961Y-78393445D01*
X206051961Y-78393445D02*
X206147200Y-78298207D01*
X206147200Y-78298207D02*
X206194819Y-78155350D01*
X206194819Y-78155350D02*
X206194819Y-78060112D01*
X206194819Y-78060112D02*
X206147200Y-77917255D01*
X206147200Y-77917255D02*
X206099580Y-77869636D01*
X206099580Y-77869636D02*
X205766247Y-77869636D01*
X205766247Y-77869636D02*
X205766247Y-78060112D01*
X206194819Y-77441064D02*
X205194819Y-77441064D01*
X205194819Y-77441064D02*
X205194819Y-77060112D01*
X205194819Y-77060112D02*
X205242438Y-76964874D01*
X205242438Y-76964874D02*
X205290057Y-76917255D01*
X205290057Y-76917255D02*
X205385295Y-76869636D01*
X205385295Y-76869636D02*
X205528152Y-76869636D01*
X205528152Y-76869636D02*
X205623390Y-76917255D01*
X205623390Y-76917255D02*
X205671009Y-76964874D01*
X205671009Y-76964874D02*
X205718628Y-77060112D01*
X205718628Y-77060112D02*
X205718628Y-77441064D01*
X206194819Y-76441064D02*
X205194819Y-76441064D01*
X205194819Y-75774398D02*
X205194819Y-75583922D01*
X205194819Y-75583922D02*
X205242438Y-75488684D01*
X205242438Y-75488684D02*
X205337676Y-75393446D01*
X205337676Y-75393446D02*
X205528152Y-75345827D01*
X205528152Y-75345827D02*
X205861485Y-75345827D01*
X205861485Y-75345827D02*
X206051961Y-75393446D01*
X206051961Y-75393446D02*
X206147200Y-75488684D01*
X206147200Y-75488684D02*
X206194819Y-75583922D01*
X206194819Y-75583922D02*
X206194819Y-75774398D01*
X206194819Y-75774398D02*
X206147200Y-75869636D01*
X206147200Y-75869636D02*
X206051961Y-75964874D01*
X206051961Y-75964874D02*
X205861485Y-76012493D01*
X205861485Y-76012493D02*
X205528152Y-76012493D01*
X205528152Y-76012493D02*
X205337676Y-75964874D01*
X205337676Y-75964874D02*
X205242438Y-75869636D01*
X205242438Y-75869636D02*
X205194819Y-75774398D01*
X206194819Y-73631541D02*
X206194819Y-74202969D01*
X206194819Y-73917255D02*
X205194819Y-73917255D01*
X205194819Y-73917255D02*
X205337676Y-74012493D01*
X205337676Y-74012493D02*
X205432914Y-74107731D01*
X205432914Y-74107731D02*
X205480533Y-74202969D01*
X205194819Y-72774398D02*
X205194819Y-72964874D01*
X205194819Y-72964874D02*
X205242438Y-73060112D01*
X205242438Y-73060112D02*
X205290057Y-73107731D01*
X205290057Y-73107731D02*
X205432914Y-73202969D01*
X205432914Y-73202969D02*
X205623390Y-73250588D01*
X205623390Y-73250588D02*
X206004342Y-73250588D01*
X206004342Y-73250588D02*
X206099580Y-73202969D01*
X206099580Y-73202969D02*
X206147200Y-73155350D01*
X206147200Y-73155350D02*
X206194819Y-73060112D01*
X206194819Y-73060112D02*
X206194819Y-72869636D01*
X206194819Y-72869636D02*
X206147200Y-72774398D01*
X206147200Y-72774398D02*
X206099580Y-72726779D01*
X206099580Y-72726779D02*
X206004342Y-72679160D01*
X206004342Y-72679160D02*
X205766247Y-72679160D01*
X205766247Y-72679160D02*
X205671009Y-72726779D01*
X205671009Y-72726779D02*
X205623390Y-72774398D01*
X205623390Y-72774398D02*
X205575771Y-72869636D01*
X205575771Y-72869636D02*
X205575771Y-73060112D01*
X205575771Y-73060112D02*
X205623390Y-73155350D01*
X205623390Y-73155350D02*
X205671009Y-73202969D01*
X205671009Y-73202969D02*
X205766247Y-73250588D01*
X183652438Y-86769411D02*
X183604819Y-86864649D01*
X183604819Y-86864649D02*
X183604819Y-87007506D01*
X183604819Y-87007506D02*
X183652438Y-87150363D01*
X183652438Y-87150363D02*
X183747676Y-87245601D01*
X183747676Y-87245601D02*
X183842914Y-87293220D01*
X183842914Y-87293220D02*
X184033390Y-87340839D01*
X184033390Y-87340839D02*
X184176247Y-87340839D01*
X184176247Y-87340839D02*
X184366723Y-87293220D01*
X184366723Y-87293220D02*
X184461961Y-87245601D01*
X184461961Y-87245601D02*
X184557200Y-87150363D01*
X184557200Y-87150363D02*
X184604819Y-87007506D01*
X184604819Y-87007506D02*
X184604819Y-86912268D01*
X184604819Y-86912268D02*
X184557200Y-86769411D01*
X184557200Y-86769411D02*
X184509580Y-86721792D01*
X184509580Y-86721792D02*
X184176247Y-86721792D01*
X184176247Y-86721792D02*
X184176247Y-86912268D01*
X184604819Y-86293220D02*
X183604819Y-86293220D01*
X183604819Y-86293220D02*
X183604819Y-85912268D01*
X183604819Y-85912268D02*
X183652438Y-85817030D01*
X183652438Y-85817030D02*
X183700057Y-85769411D01*
X183700057Y-85769411D02*
X183795295Y-85721792D01*
X183795295Y-85721792D02*
X183938152Y-85721792D01*
X183938152Y-85721792D02*
X184033390Y-85769411D01*
X184033390Y-85769411D02*
X184081009Y-85817030D01*
X184081009Y-85817030D02*
X184128628Y-85912268D01*
X184128628Y-85912268D02*
X184128628Y-86293220D01*
X184604819Y-85293220D02*
X183604819Y-85293220D01*
X183604819Y-84626554D02*
X183604819Y-84436078D01*
X183604819Y-84436078D02*
X183652438Y-84340840D01*
X183652438Y-84340840D02*
X183747676Y-84245602D01*
X183747676Y-84245602D02*
X183938152Y-84197983D01*
X183938152Y-84197983D02*
X184271485Y-84197983D01*
X184271485Y-84197983D02*
X184461961Y-84245602D01*
X184461961Y-84245602D02*
X184557200Y-84340840D01*
X184557200Y-84340840D02*
X184604819Y-84436078D01*
X184604819Y-84436078D02*
X184604819Y-84626554D01*
X184604819Y-84626554D02*
X184557200Y-84721792D01*
X184557200Y-84721792D02*
X184461961Y-84817030D01*
X184461961Y-84817030D02*
X184271485Y-84864649D01*
X184271485Y-84864649D02*
X183938152Y-84864649D01*
X183938152Y-84864649D02*
X183747676Y-84817030D01*
X183747676Y-84817030D02*
X183652438Y-84721792D01*
X183652438Y-84721792D02*
X183604819Y-84626554D01*
X183604819Y-82817030D02*
X183604819Y-82721792D01*
X183604819Y-82721792D02*
X183652438Y-82626554D01*
X183652438Y-82626554D02*
X183700057Y-82578935D01*
X183700057Y-82578935D02*
X183795295Y-82531316D01*
X183795295Y-82531316D02*
X183985771Y-82483697D01*
X183985771Y-82483697D02*
X184223866Y-82483697D01*
X184223866Y-82483697D02*
X184414342Y-82531316D01*
X184414342Y-82531316D02*
X184509580Y-82578935D01*
X184509580Y-82578935D02*
X184557200Y-82626554D01*
X184557200Y-82626554D02*
X184604819Y-82721792D01*
X184604819Y-82721792D02*
X184604819Y-82817030D01*
X184604819Y-82817030D02*
X184557200Y-82912268D01*
X184557200Y-82912268D02*
X184509580Y-82959887D01*
X184509580Y-82959887D02*
X184414342Y-83007506D01*
X184414342Y-83007506D02*
X184223866Y-83055125D01*
X184223866Y-83055125D02*
X183985771Y-83055125D01*
X183985771Y-83055125D02*
X183795295Y-83007506D01*
X183795295Y-83007506D02*
X183700057Y-82959887D01*
X183700057Y-82959887D02*
X183652438Y-82912268D01*
X183652438Y-82912268D02*
X183604819Y-82817030D01*
X196606438Y-94389411D02*
X196558819Y-94484649D01*
X196558819Y-94484649D02*
X196558819Y-94627506D01*
X196558819Y-94627506D02*
X196606438Y-94770363D01*
X196606438Y-94770363D02*
X196701676Y-94865601D01*
X196701676Y-94865601D02*
X196796914Y-94913220D01*
X196796914Y-94913220D02*
X196987390Y-94960839D01*
X196987390Y-94960839D02*
X197130247Y-94960839D01*
X197130247Y-94960839D02*
X197320723Y-94913220D01*
X197320723Y-94913220D02*
X197415961Y-94865601D01*
X197415961Y-94865601D02*
X197511200Y-94770363D01*
X197511200Y-94770363D02*
X197558819Y-94627506D01*
X197558819Y-94627506D02*
X197558819Y-94532268D01*
X197558819Y-94532268D02*
X197511200Y-94389411D01*
X197511200Y-94389411D02*
X197463580Y-94341792D01*
X197463580Y-94341792D02*
X197130247Y-94341792D01*
X197130247Y-94341792D02*
X197130247Y-94532268D01*
X197558819Y-93913220D02*
X196558819Y-93913220D01*
X196558819Y-93913220D02*
X197558819Y-93341792D01*
X197558819Y-93341792D02*
X196558819Y-93341792D01*
X197558819Y-92865601D02*
X196558819Y-92865601D01*
X196558819Y-92865601D02*
X196558819Y-92627506D01*
X196558819Y-92627506D02*
X196606438Y-92484649D01*
X196606438Y-92484649D02*
X196701676Y-92389411D01*
X196701676Y-92389411D02*
X196796914Y-92341792D01*
X196796914Y-92341792D02*
X196987390Y-92294173D01*
X196987390Y-92294173D02*
X197130247Y-92294173D01*
X197130247Y-92294173D02*
X197320723Y-92341792D01*
X197320723Y-92341792D02*
X197415961Y-92389411D01*
X197415961Y-92389411D02*
X197511200Y-92484649D01*
X197511200Y-92484649D02*
X197558819Y-92627506D01*
X197558819Y-92627506D02*
X197558819Y-92865601D01*
X205194819Y-95008458D02*
X205194819Y-94389411D01*
X205194819Y-94389411D02*
X205575771Y-94722744D01*
X205575771Y-94722744D02*
X205575771Y-94579887D01*
X205575771Y-94579887D02*
X205623390Y-94484649D01*
X205623390Y-94484649D02*
X205671009Y-94437030D01*
X205671009Y-94437030D02*
X205766247Y-94389411D01*
X205766247Y-94389411D02*
X206004342Y-94389411D01*
X206004342Y-94389411D02*
X206099580Y-94437030D01*
X206099580Y-94437030D02*
X206147200Y-94484649D01*
X206147200Y-94484649D02*
X206194819Y-94579887D01*
X206194819Y-94579887D02*
X206194819Y-94865601D01*
X206194819Y-94865601D02*
X206147200Y-94960839D01*
X206147200Y-94960839D02*
X206099580Y-95008458D01*
X206147200Y-93913220D02*
X206194819Y-93913220D01*
X206194819Y-93913220D02*
X206290057Y-93960839D01*
X206290057Y-93960839D02*
X206337676Y-94008458D01*
X205194819Y-93579887D02*
X205194819Y-92960840D01*
X205194819Y-92960840D02*
X205575771Y-93294173D01*
X205575771Y-93294173D02*
X205575771Y-93151316D01*
X205575771Y-93151316D02*
X205623390Y-93056078D01*
X205623390Y-93056078D02*
X205671009Y-93008459D01*
X205671009Y-93008459D02*
X205766247Y-92960840D01*
X205766247Y-92960840D02*
X206004342Y-92960840D01*
X206004342Y-92960840D02*
X206099580Y-93008459D01*
X206099580Y-93008459D02*
X206147200Y-93056078D01*
X206147200Y-93056078D02*
X206194819Y-93151316D01*
X206194819Y-93151316D02*
X206194819Y-93437030D01*
X206194819Y-93437030D02*
X206147200Y-93532268D01*
X206147200Y-93532268D02*
X206099580Y-93579887D01*
X205194819Y-92675125D02*
X206194819Y-92341792D01*
X206194819Y-92341792D02*
X205194819Y-92008459D01*
X199844938Y-86769411D02*
X199797319Y-86864649D01*
X199797319Y-86864649D02*
X199797319Y-87007506D01*
X199797319Y-87007506D02*
X199844938Y-87150363D01*
X199844938Y-87150363D02*
X199940176Y-87245601D01*
X199940176Y-87245601D02*
X200035414Y-87293220D01*
X200035414Y-87293220D02*
X200225890Y-87340839D01*
X200225890Y-87340839D02*
X200368747Y-87340839D01*
X200368747Y-87340839D02*
X200559223Y-87293220D01*
X200559223Y-87293220D02*
X200654461Y-87245601D01*
X200654461Y-87245601D02*
X200749700Y-87150363D01*
X200749700Y-87150363D02*
X200797319Y-87007506D01*
X200797319Y-87007506D02*
X200797319Y-86912268D01*
X200797319Y-86912268D02*
X200749700Y-86769411D01*
X200749700Y-86769411D02*
X200702080Y-86721792D01*
X200702080Y-86721792D02*
X200368747Y-86721792D01*
X200368747Y-86721792D02*
X200368747Y-86912268D01*
X200797319Y-86293220D02*
X199797319Y-86293220D01*
X199797319Y-86293220D02*
X199797319Y-85912268D01*
X199797319Y-85912268D02*
X199844938Y-85817030D01*
X199844938Y-85817030D02*
X199892557Y-85769411D01*
X199892557Y-85769411D02*
X199987795Y-85721792D01*
X199987795Y-85721792D02*
X200130652Y-85721792D01*
X200130652Y-85721792D02*
X200225890Y-85769411D01*
X200225890Y-85769411D02*
X200273509Y-85817030D01*
X200273509Y-85817030D02*
X200321128Y-85912268D01*
X200321128Y-85912268D02*
X200321128Y-86293220D01*
X200797319Y-85293220D02*
X199797319Y-85293220D01*
X199797319Y-84626554D02*
X199797319Y-84436078D01*
X199797319Y-84436078D02*
X199844938Y-84340840D01*
X199844938Y-84340840D02*
X199940176Y-84245602D01*
X199940176Y-84245602D02*
X200130652Y-84197983D01*
X200130652Y-84197983D02*
X200463985Y-84197983D01*
X200463985Y-84197983D02*
X200654461Y-84245602D01*
X200654461Y-84245602D02*
X200749700Y-84340840D01*
X200749700Y-84340840D02*
X200797319Y-84436078D01*
X200797319Y-84436078D02*
X200797319Y-84626554D01*
X200797319Y-84626554D02*
X200749700Y-84721792D01*
X200749700Y-84721792D02*
X200654461Y-84817030D01*
X200654461Y-84817030D02*
X200463985Y-84864649D01*
X200463985Y-84864649D02*
X200130652Y-84864649D01*
X200130652Y-84864649D02*
X199940176Y-84817030D01*
X199940176Y-84817030D02*
X199844938Y-84721792D01*
X199844938Y-84721792D02*
X199797319Y-84626554D01*
X199797319Y-83102744D02*
X199797319Y-82483697D01*
X199797319Y-82483697D02*
X200178271Y-82817030D01*
X200178271Y-82817030D02*
X200178271Y-82674173D01*
X200178271Y-82674173D02*
X200225890Y-82578935D01*
X200225890Y-82578935D02*
X200273509Y-82531316D01*
X200273509Y-82531316D02*
X200368747Y-82483697D01*
X200368747Y-82483697D02*
X200606842Y-82483697D01*
X200606842Y-82483697D02*
X200702080Y-82531316D01*
X200702080Y-82531316D02*
X200749700Y-82578935D01*
X200749700Y-82578935D02*
X200797319Y-82674173D01*
X200797319Y-82674173D02*
X200797319Y-82959887D01*
X200797319Y-82959887D02*
X200749700Y-83055125D01*
X200749700Y-83055125D02*
X200702080Y-83102744D01*
X189049938Y-86769411D02*
X189002319Y-86864649D01*
X189002319Y-86864649D02*
X189002319Y-87007506D01*
X189002319Y-87007506D02*
X189049938Y-87150363D01*
X189049938Y-87150363D02*
X189145176Y-87245601D01*
X189145176Y-87245601D02*
X189240414Y-87293220D01*
X189240414Y-87293220D02*
X189430890Y-87340839D01*
X189430890Y-87340839D02*
X189573747Y-87340839D01*
X189573747Y-87340839D02*
X189764223Y-87293220D01*
X189764223Y-87293220D02*
X189859461Y-87245601D01*
X189859461Y-87245601D02*
X189954700Y-87150363D01*
X189954700Y-87150363D02*
X190002319Y-87007506D01*
X190002319Y-87007506D02*
X190002319Y-86912268D01*
X190002319Y-86912268D02*
X189954700Y-86769411D01*
X189954700Y-86769411D02*
X189907080Y-86721792D01*
X189907080Y-86721792D02*
X189573747Y-86721792D01*
X189573747Y-86721792D02*
X189573747Y-86912268D01*
X190002319Y-86293220D02*
X189002319Y-86293220D01*
X189002319Y-86293220D02*
X189002319Y-85912268D01*
X189002319Y-85912268D02*
X189049938Y-85817030D01*
X189049938Y-85817030D02*
X189097557Y-85769411D01*
X189097557Y-85769411D02*
X189192795Y-85721792D01*
X189192795Y-85721792D02*
X189335652Y-85721792D01*
X189335652Y-85721792D02*
X189430890Y-85769411D01*
X189430890Y-85769411D02*
X189478509Y-85817030D01*
X189478509Y-85817030D02*
X189526128Y-85912268D01*
X189526128Y-85912268D02*
X189526128Y-86293220D01*
X190002319Y-85293220D02*
X189002319Y-85293220D01*
X189002319Y-84626554D02*
X189002319Y-84436078D01*
X189002319Y-84436078D02*
X189049938Y-84340840D01*
X189049938Y-84340840D02*
X189145176Y-84245602D01*
X189145176Y-84245602D02*
X189335652Y-84197983D01*
X189335652Y-84197983D02*
X189668985Y-84197983D01*
X189668985Y-84197983D02*
X189859461Y-84245602D01*
X189859461Y-84245602D02*
X189954700Y-84340840D01*
X189954700Y-84340840D02*
X190002319Y-84436078D01*
X190002319Y-84436078D02*
X190002319Y-84626554D01*
X190002319Y-84626554D02*
X189954700Y-84721792D01*
X189954700Y-84721792D02*
X189859461Y-84817030D01*
X189859461Y-84817030D02*
X189668985Y-84864649D01*
X189668985Y-84864649D02*
X189335652Y-84864649D01*
X189335652Y-84864649D02*
X189145176Y-84817030D01*
X189145176Y-84817030D02*
X189049938Y-84721792D01*
X189049938Y-84721792D02*
X189002319Y-84626554D01*
X190002319Y-82483697D02*
X190002319Y-83055125D01*
X190002319Y-82769411D02*
X189002319Y-82769411D01*
X189002319Y-82769411D02*
X189145176Y-82864649D01*
X189145176Y-82864649D02*
X189240414Y-82959887D01*
X189240414Y-82959887D02*
X189288033Y-83055125D01*
X192288438Y-94389411D02*
X192240819Y-94484649D01*
X192240819Y-94484649D02*
X192240819Y-94627506D01*
X192240819Y-94627506D02*
X192288438Y-94770363D01*
X192288438Y-94770363D02*
X192383676Y-94865601D01*
X192383676Y-94865601D02*
X192478914Y-94913220D01*
X192478914Y-94913220D02*
X192669390Y-94960839D01*
X192669390Y-94960839D02*
X192812247Y-94960839D01*
X192812247Y-94960839D02*
X193002723Y-94913220D01*
X193002723Y-94913220D02*
X193097961Y-94865601D01*
X193097961Y-94865601D02*
X193193200Y-94770363D01*
X193193200Y-94770363D02*
X193240819Y-94627506D01*
X193240819Y-94627506D02*
X193240819Y-94532268D01*
X193240819Y-94532268D02*
X193193200Y-94389411D01*
X193193200Y-94389411D02*
X193145580Y-94341792D01*
X193145580Y-94341792D02*
X192812247Y-94341792D01*
X192812247Y-94341792D02*
X192812247Y-94532268D01*
X193240819Y-93913220D02*
X192240819Y-93913220D01*
X192240819Y-93913220D02*
X193240819Y-93341792D01*
X193240819Y-93341792D02*
X192240819Y-93341792D01*
X193240819Y-92865601D02*
X192240819Y-92865601D01*
X192240819Y-92865601D02*
X192240819Y-92627506D01*
X192240819Y-92627506D02*
X192288438Y-92484649D01*
X192288438Y-92484649D02*
X192383676Y-92389411D01*
X192383676Y-92389411D02*
X192478914Y-92341792D01*
X192478914Y-92341792D02*
X192669390Y-92294173D01*
X192669390Y-92294173D02*
X192812247Y-92294173D01*
X192812247Y-92294173D02*
X193002723Y-92341792D01*
X193002723Y-92341792D02*
X193097961Y-92389411D01*
X193097961Y-92389411D02*
X193193200Y-92484649D01*
X193193200Y-92484649D02*
X193240819Y-92627506D01*
X193240819Y-92627506D02*
X193240819Y-92865601D01*
D12*
%TO.C,U9*%
X208200000Y-100500000D02*
X208200000Y-139520000D01*
X182330000Y-100530000D02*
X182330000Y-139520000D01*
X182330000Y-139520000D02*
X208200000Y-139520000D01*
D10*
X186450000Y-104790000D02*
X185815000Y-104155000D01*
X186450000Y-103520000D01*
X186450000Y-104790000D01*
G36*
X186450000Y-104790000D02*
G01*
X185815000Y-104155000D01*
X186450000Y-103520000D01*
X186450000Y-104790000D01*
G37*
D12*
X208200000Y-100500000D02*
X182330000Y-100530000D01*
%TO.C,G\u002A\u002A\u002A*%
X191680000Y-120030000D02*
G75*
G03*
X189980000Y-120030000I-850000J0D01*
G01*
X197054999Y-120629998D02*
G75*
G03*
X197038731Y-119174595I-249999J724998D01*
G01*
X190480000Y-120730000D02*
G75*
G03*
X191180000Y-120730000I350000J0D01*
G01*
X203054999Y-120304999D02*
G75*
G03*
X202605000Y-119218605I-449999J449999D01*
G01*
X191180000Y-120030000D02*
G75*
G03*
X190480000Y-120030000I-350000J0D01*
G01*
X192930000Y-120080000D02*
G75*
G03*
X192869366Y-119587464I0J250000D01*
G01*
X193279999Y-121629999D02*
G75*
G03*
X193456256Y-120321063I-249999J699999D01*
G01*
X202654999Y-121104999D02*
G75*
G03*
X202605001Y-120600050I-49999J249999D01*
G01*
X189980000Y-120730000D02*
G75*
G03*
X191680000Y-120730000I850000J0D01*
G01*
X196929999Y-120179998D02*
G75*
G03*
X196929999Y-119630002I-124999J274998D01*
G01*
X193479999Y-120279999D02*
G75*
G03*
X193030000Y-119193605I-449999J449999D01*
G01*
X193079999Y-121079999D02*
G75*
G03*
X193030001Y-120575050I-49999J249999D01*
G01*
X202505000Y-120105000D02*
G75*
G03*
X202444366Y-119612464I0J250000D01*
G01*
X202854999Y-121654999D02*
G75*
G03*
X203031256Y-120346063I-249999J699999D01*
G01*
X201380000Y-121655000D02*
X200605000Y-119205000D01*
D13*
X192680000Y-117530000D02*
X191205000Y-119255000D01*
D12*
X198455000Y-121180000D02*
X199205000Y-121180000D01*
X195280000Y-120130000D02*
X194630000Y-120130000D01*
X197980000Y-119180000D02*
X198430000Y-119180000D01*
X189980000Y-120730000D02*
X189980000Y-120030000D01*
X199205000Y-121630000D02*
X197955000Y-121630000D01*
X197955000Y-121630000D02*
X197980000Y-119180000D01*
X192630000Y-119630000D02*
X192630000Y-120080000D01*
X194180000Y-119180000D02*
X194130000Y-121630000D01*
X194630000Y-120130000D02*
X194630000Y-119680000D01*
X194130000Y-121630000D02*
X194230000Y-121630000D01*
X200130000Y-121055000D02*
X200730000Y-121055000D01*
X199880000Y-121655000D02*
X199380000Y-121655000D01*
X198430000Y-119180000D02*
X198455000Y-121180000D01*
X191680000Y-120030000D02*
X191680000Y-120730000D01*
X195280000Y-120580000D02*
X195280000Y-120130000D01*
X200605000Y-119205000D02*
X200280000Y-119205000D01*
X200980000Y-121655000D02*
X201380000Y-121655000D01*
X202205000Y-121105000D02*
X202655000Y-121105000D01*
D13*
X201630000Y-115730000D02*
X199830000Y-115780000D01*
D12*
X196380000Y-121630000D02*
X196380000Y-120680000D01*
D13*
X200405000Y-117830000D02*
X198730000Y-117930000D01*
X195005000Y-116380000D02*
X198480000Y-114755000D01*
X192680000Y-117530000D02*
X187030000Y-120380000D01*
X188355000Y-120855000D02*
X189180000Y-120505000D01*
D12*
X192630000Y-120080000D02*
X192930000Y-120080000D01*
X195480000Y-119680000D02*
X195480000Y-119180000D01*
X192630000Y-119580000D02*
X192880000Y-119580000D01*
D13*
X194255000Y-114955000D02*
X195005000Y-116380000D01*
D12*
X194630000Y-120580000D02*
X195280000Y-120580000D01*
X196530000Y-120680000D02*
X197280000Y-121630000D01*
X200280000Y-119205000D02*
X199380000Y-121655000D01*
X200155000Y-120655000D02*
X200655000Y-120655000D01*
X195930000Y-121630000D02*
X196380000Y-121630000D01*
X195480000Y-119180000D02*
X194180000Y-119180000D01*
X200730000Y-121055000D02*
X200980000Y-121655000D01*
X194630000Y-121130000D02*
X194630000Y-120580000D01*
X197680000Y-121630000D02*
X197780000Y-121630000D01*
D13*
X197380000Y-116380000D02*
X197955000Y-117880000D01*
D12*
X200430000Y-119905000D02*
X200155000Y-120655000D01*
X201705000Y-119205000D02*
X201655000Y-121655000D01*
D13*
X198505000Y-115155000D02*
X197380000Y-116380000D01*
D12*
X194630000Y-119680000D02*
X195480000Y-119680000D01*
X199205000Y-121180000D02*
X199205000Y-121630000D01*
D13*
X201980000Y-116905000D02*
X201630000Y-115730000D01*
D12*
X200655000Y-120655000D02*
X200430000Y-119905000D01*
X202205000Y-119655000D02*
X202205000Y-120105000D01*
D13*
X191955000Y-115955000D02*
X192680000Y-117530000D01*
D12*
X190480000Y-120030000D02*
X190480000Y-120730000D01*
D13*
X190530000Y-119880000D02*
X190855000Y-120280000D01*
D12*
X202205001Y-120600050D02*
X202605001Y-120600050D01*
X202605000Y-119218605D02*
X201705000Y-119205000D01*
X195480000Y-121630000D02*
X195480000Y-121130000D01*
D13*
X190930000Y-116205000D02*
X192680000Y-117530000D01*
D12*
X191180000Y-120030000D02*
X191180000Y-120680000D01*
X192630001Y-120575050D02*
X193030001Y-120575050D01*
X193030000Y-119193605D02*
X192130000Y-119180000D01*
X196430000Y-120180000D02*
X196930000Y-120180000D01*
D13*
X199705000Y-117255000D02*
X200405000Y-117830000D01*
D12*
X196380000Y-120680000D02*
X196530000Y-120680000D01*
X192080000Y-121630000D02*
X193280000Y-121630000D01*
D13*
X202930000Y-117780000D02*
X203930000Y-117630000D01*
X195780000Y-118830000D02*
X194805000Y-119180000D01*
D12*
X194230000Y-121630000D02*
X195480000Y-121630000D01*
X197280000Y-121630000D02*
X197680000Y-121630000D01*
X195480000Y-121130000D02*
X194630000Y-121130000D01*
D13*
X199830000Y-115780000D02*
X201980000Y-116905000D01*
D12*
X202205000Y-120605000D02*
X202205000Y-121105000D01*
D13*
X189430000Y-120905000D02*
X190005000Y-120105000D01*
D12*
X196430000Y-119630000D02*
X196430000Y-120180000D01*
D13*
X191380000Y-119355000D02*
X198480000Y-114755000D01*
X190855000Y-120280000D02*
X190480000Y-120455000D01*
X198480000Y-114755000D02*
X198555000Y-117480000D01*
X198705000Y-117930000D02*
X199705000Y-117255000D01*
X189980000Y-120630000D02*
X189430000Y-120905000D01*
D12*
X202205000Y-119605000D02*
X202455000Y-119605000D01*
X201655000Y-121655000D02*
X202855000Y-121655000D01*
D13*
X195005000Y-116380000D02*
X192680000Y-117530000D01*
D12*
X197038731Y-119174594D02*
X195930000Y-119180000D01*
X202205000Y-120105000D02*
X202505000Y-120105000D01*
X197780000Y-121630000D02*
X197080000Y-120680000D01*
X199880000Y-121655000D02*
X200130000Y-121055000D01*
D13*
X190930000Y-116205000D02*
X191955000Y-115955000D01*
D12*
X192130000Y-119180000D02*
X192080000Y-121630000D01*
D13*
X195380000Y-118555000D02*
X195780000Y-118830000D01*
D12*
X192630000Y-121080000D02*
X193080000Y-121080000D01*
D13*
X187030000Y-120380000D02*
X190930000Y-116205000D01*
X196930000Y-118605000D02*
X195255000Y-118380000D01*
X194605000Y-119155000D02*
X195380000Y-118555000D01*
X189930000Y-119905000D02*
X189705000Y-120530000D01*
X187030000Y-120380000D02*
X188355000Y-120855000D01*
D12*
X195930000Y-119180000D02*
X195930000Y-121630000D01*
X196880000Y-119630000D02*
X196430000Y-119630000D01*
D13*
X187030000Y-120380000D02*
X189930000Y-119905000D01*
X194255000Y-114955000D02*
X192055000Y-116130000D01*
X195255000Y-118380000D02*
X193430000Y-119280000D01*
X189705000Y-120530000D02*
X187030000Y-120380000D01*
X192055000Y-116130000D02*
X193630000Y-117030000D01*
X203930000Y-117630000D02*
X203355000Y-118105000D01*
D12*
X192630000Y-120580000D02*
X192630000Y-121080000D01*
D13*
X203355000Y-118105000D02*
X202930000Y-117780000D01*
X198555000Y-117480000D02*
X196930000Y-118605000D01*
%TD*%
M02*
