M48
; DRILL file {KiCad 7.0.8} date Wed Jun  5 08:03:06 2024
; FORMAT={3:3/ absolute / metric / suppress leading zeros}
; #@! TF.CreationDate,2024-06-05T08:03:06+02:00
; #@! TF.GenerationSoftware,Kicad,Pcbnew,7.0.8
; #@! TF.FileFunction,MixedPlating,1,2
FMAT,2
METRIC,TZ
; #@! TA.AperFunction,Plated,PTH,ViaDrill
T1C0.400
; #@! TA.AperFunction,Plated,PTH,ComponentDrill
T2C1.000
%
G90
G05
T1
X192786Y-118764
X198750Y-99250
X203050Y-83550
X203850Y-102050
T2
X183840Y-104150
X183840Y-106690
X183840Y-109230
X183840Y-111770
X183840Y-114310
X183840Y-116850
X183840Y-119390
X183840Y-121930
X184150Y-80010
X184150Y-88900
X184150Y-96520
X188468Y-96520
X189548Y-80010
X189548Y-88900
X192786Y-96520
X194945Y-80010
X194945Y-88900
X197104Y-96520
X200343Y-80010
X200343Y-88900
X201422Y-96520
X205740Y-80010
X205740Y-88900
X205740Y-96520
X206700Y-104150
X206700Y-106690
X206700Y-109230
X206700Y-111770
X206700Y-114310
X206700Y-116850
X206700Y-119390
X206700Y-121930
T0
M30
